<svg width="20" height="17" viewBox="0 0 20 17" fill="none" xmlns="http://www.w3.org/2000/svg">
<g clip-path="url(#clip0)">
<path d="M19.9999 3.5338C19.9219 3.52851 19.8438 3.51264 19.7709 3.51264C15.2744 3.51264 10.7832 3.51264 6.28667 3.50735C6.10972 3.50735 6.03686 3.54967 5.99523 3.74009C5.67777 5.1735 4.46518 6.16261 3.034 6.15732C1.60803 6.15732 0.395438 5.15763 0.0727734 3.72951C-0.307138 2.02633 0.863822 0.286135 2.56562 0.0375351C4.19976 -0.200486 5.63614 0.804492 6.00564 2.45477C6.03686 2.59758 6.0837 2.64519 6.22942 2.64519C10.7623 2.6399 15.2953 2.6399 19.8282 2.6399C19.8854 2.6399 19.9427 2.62932 19.9999 2.61874C19.9999 2.92553 19.9999 3.22702 19.9999 3.5338ZM3.04441 5.27929C4.24139 5.274 5.20939 4.28489 5.20418 3.06834C5.20418 1.84121 4.22578 0.867965 3.00798 0.873254C1.82661 0.878543 0.863822 1.87294 0.869026 3.08421C0.874231 4.30076 1.84743 5.28458 3.04441 5.27929Z" fill="black"/>
<path d="M19.9999 14.3606C19.4846 14.3606 18.9746 14.3553 18.4594 14.3553C16.7732 14.3553 15.0922 14.3553 13.406 14.3553C13.328 14.3553 13.2499 14.3553 13.1614 14.3553C13.0053 15.2545 12.5786 15.9739 11.8396 16.4816C11.2983 16.8572 10.6894 17.0212 10.0337 17C8.70139 16.9524 7.42635 15.9844 7.14532 14.3606C4.77737 14.3606 2.40943 14.3606 0.0258789 14.3606C0.0258789 14.0644 0.0258789 13.7894 0.0258789 13.4932C2.39382 13.4932 4.76176 13.4932 7.1297 13.4932C7.19736 13.2604 7.2442 13.0383 7.32226 12.832C7.79065 11.5625 9.05008 10.7374 10.3459 10.8432C11.7303 10.9543 12.8544 11.9434 13.1198 13.3027C13.151 13.4561 13.2031 13.4879 13.3436 13.4879C15.4826 13.4826 17.6215 13.4826 19.7605 13.4879C19.8385 13.4879 19.9166 13.4932 19.9947 13.4932C19.9999 13.7788 19.9999 14.0697 19.9999 14.3606ZM10.1586 16.1273C11.366 16.1167 12.3236 15.1329 12.3184 13.9163C12.3132 12.6945 11.34 11.7054 10.1482 11.7159C8.94599 11.7212 7.97279 12.7315 7.9832 13.9533C7.99361 15.1434 8.98242 16.1378 10.1586 16.1273Z" fill="black"/>
</g>
<defs>
<clipPath id="clip0">
<rect width="20" height="17" fill="white"/>
</clipPath>
</defs>
</svg>
