<svg width="20" height="17" fill="none" xmlns="http://www.w3.org/2000/svg"><g clip-path="url(#clip0)" fill="#000"><path d="M20 3.534c-.078-.005-.156-.021-.23-.021-4.496 0-8.987 0-13.483-.006-.177 0-.25.043-.292.233-.317 1.433-1.53 2.423-2.961 2.417-1.426 0-2.639-1-2.961-2.427C-.307 2.026.863.286 2.566.038 4.2-.2 5.636.804 6.006 2.455c.03.143.078.19.223.19 4.533-.005 9.066-.005 13.6-.005.056 0 .114-.01.17-.021v.915zM3.044 5.279c1.197-.005 2.165-.994 2.16-2.21A2.18 2.18 0 0 0 3.008.872C1.827.88.864 1.873.869 3.084c.005 1.217.978 2.2 2.175 2.195zM20 14.36c-.515 0-1.025-.005-1.54-.005h-5.3c-.156.9-.582 1.619-1.321 2.127-.542.375-1.15.54-1.806.518-1.333-.048-2.608-1.016-2.889-2.64H.025v-.867H7.13c.067-.233.114-.455.192-.661.469-1.27 1.728-2.095 3.024-1.989a3.047 3.047 0 0 1 2.774 2.46c.031.153.083.185.224.185 2.139-.005 4.278-.005 6.417 0 .078 0 .156.005.234.005.005.286.005.577.005.868zm-9.841 1.767a2.183 2.183 0 0 0 2.16-2.21c-.006-1.223-.979-2.212-2.17-2.201-1.203.005-2.176 1.016-2.166 2.237.01 1.19 1 2.185 2.176 2.174z"/></g><defs><clipPath id="clip0"><path fill="#fff" d="M0 0h20v17H0z"/></clipPath></defs></svg>